<?xml version="1.0" encoding="UTF-8" standalone="no"?>
<svg
   xmlns:dc="http://purl.org/dc/elements/1.1/"
   xmlns:cc="http://creativecommons.org/ns#"
   xmlns:rdf="http://www.w3.org/1999/02/22-rdf-syntax-ns#"
   xmlns:svg="http://www.w3.org/2000/svg"
   xmlns="http://www.w3.org/2000/svg"
   viewBox="0 0 600 600"
   height="600"
   width="600"
   xml:space="preserve"
   id="svg2"
   version="1.1"><metadata
     id="metadata8"><rdf:RDF><cc:Work
         rdf:about=""><dc:format>image/svg+xml</dc:format><dc:type
           rdf:resource="http://purl.org/dc/dcmitype/StillImage" /></cc:Work></rdf:RDF></metadata><defs
     id="defs6"><clipPath
       id="clipPath166"
       clipPathUnits="userSpaceOnUse"><path
         id="path164"
         d="m 1965.61,1235.8 c -27.48,25.5 -49.61,50.72 -66.78,73.64 l 86.3,29.86 c 61.31,-14.54 129.45,-23.66 202.36,-26.74 l -221.88,-76.76" /></clipPath></defs><g
     transform="matrix(1.3333333,0,0,-1.3333333,0,600)"
     id="g10"><g
       transform="scale(0.1)"
       id="g12"><path
         id="path14"
         style="fill:#d3c6a9;fill-opacity:1;fill-rule:nonzero;stroke:none"
         d="M 2588.15,908.109 H 2163.46 L 2098.95,471.5 h 553.71 l -64.51,436.609" /><path
         id="path16"
         style="fill:#b7a788;fill-opacity:1;fill-rule:nonzero;stroke:none"
         d="m 2619.96,692.82 -31.81,215.289 h -424.69 l -36.02,-243.789 492.52,28.5" /><path
         id="path18"
         style="fill:#e8dfc8;fill-opacity:1;fill-rule:nonzero;stroke:none"
         d="M 2760.17,498.379 H 1991.44 V 450 h 768.73 v 48.379" /><path
         id="path20"
         style="fill:#e8dfc8;fill-opacity:1;fill-rule:nonzero;stroke:none"
         d="M 3554.18,2618.22 H 1197.43 c -48.88,0 -88.51,-39.63 -88.51,-88.52 V 899.27 c 0,-48.891 39.63,-88.52 88.51,-88.52 h 2356.75 c 48.88,0 88.51,39.629 88.51,88.52 V 2529.7 c 0,48.89 -39.63,88.52 -88.51,88.52" /><path
         id="path22"
         style="fill:#f2e9d7;fill-opacity:1;fill-rule:nonzero;stroke:none"
         d="m 1425.22,810.75 h 964.14 l 606.29,1807.47 H 2031.51 L 1425.22,810.75" /><path
         id="path24"
         style="fill:#d3c6a9;fill-opacity:1;fill-rule:nonzero;stroke:none"
         d="m 3631.63,2580.06 c 3.04,-8.7 4.79,-18.05 4.79,-27.85 V 908.379 c 0,-45.188 -35.3,-81.82 -78.84,-81.82 H 1201.2 c -43.54,0 -78.84,36.632 -78.84,81.82 V 2552.21 c 0,9.8 1.74,19.15 4.79,27.85 -9.19,-13.37 -14.65,-29.7 -14.65,-47.38 V 888.852 c 0,-45.18 35.3,-81.821 78.85,-81.821 h 2376.08 c 43.55,0 78.84,36.641 78.84,81.821 V 2532.68 c 0,17.68 -5.45,34.01 -14.64,47.38" /><path
         id="path26"
         style="fill:#4f4745;fill-opacity:1;fill-rule:nonzero;stroke:none"
         d="m 3642.69,1093.4 v 1443 c 0,45.19 -35.3,81.82 -78.84,81.82 H 1187.76 c -43.54,0 -78.84,-36.63 -78.84,-81.82 v -1443 h 2533.77" /><path
         id="path28"
         style="fill:#6b615f;fill-opacity:1;fill-rule:nonzero;stroke:none"
         d="m 1617.16,1093.4 h 895.77 l 588.04,1524.82 H 2205.2 L 1617.16,1093.4" /><path
         id="path30"
         style="fill:#8cc6dd;fill-opacity:1;fill-rule:nonzero;stroke:none"
         d="M 1173.43,1093.4 H 3578.18 V 2525.24 H 1173.43 Z" /><path
         id="path32"
         style="fill:#9bd8ea;fill-opacity:1;fill-rule:nonzero;stroke:none"
         d="m 1588.12,1093.4 h 964.14 l 480.29,1431.84 H 2068.41 L 1588.12,1093.4" /><path
         id="path34"
         style="fill:#b7a788;fill-opacity:1;fill-rule:nonzero;stroke:none"
         d="m 2547.7,955.738 h -343.78 c -7.75,0 -14.03,-4.816 -14.03,-10.769 0,-5.949 6.28,-10.77 14.03,-10.77 h 343.78 c 7.74,0 14.02,4.821 14.02,10.77 0,5.953 -6.28,10.769 -14.02,10.769" /><path
         id="path36"
         style="fill:#668e9d;fill-opacity:1;fill-rule:nonzero;stroke:none"
         d="m 1710.7,1093.4 h -203.99 l -32.6,447.27 -300.68,218.46 v 554.29 l 571.63,-56.51 c -25.24,-182.12 -50.74,-462.03 -46.01,-832.8 L 1588.12,1093.4 h 122.58 v 0" /><path
         id="path38"
         style="fill:#719ba6;fill-opacity:1;fill-rule:nonzero;stroke:none"
         d="m 1710.7,1093.4 h -122.58 l 110.93,330.71 c 1.32,-103.23 4.98,-213.54 11.65,-330.71" /><path
         id="path40"
         style="fill:#668e9d;fill-opacity:1;fill-rule:nonzero;stroke:none"
         d="m 3142.79,1093.4 h -213.26 c -1.31,11.14 -8.24,71.09 -16.48,159.71 50.67,14.18 90.21,47.63 106.06,86.07 11.74,28.46 56.71,114.27 96.9,189.57 l 86.6,-101.97 -59.82,-333.38 m -155.7,537.33 c -1.09,20.02 -3.03,38.98 -5.66,56.47 l 22.14,-26.07 c -5.18,-10.08 -10.7,-20.31 -16.48,-30.4 m -7.46,67.6 c -3.81,21.99 -8.73,41.37 -14.42,57.32 -0.01,0 -0.01,0.01 -0.01,0.02 -0.04,0.1 -0.07,0.2 -0.11,0.3 0,0.01 -0.01,0.02 -0.01,0.03 -0.03,0.09 -0.06,0.17 -0.09,0.25 -0.01,0.03 -0.02,0.04 -0.02,0.07 -0.04,0.09 -0.07,0.19 -0.1,0.28 -0.01,0.01 -0.01,0.02 -0.02,0.03 -0.03,0.08 -0.06,0.17 -0.09,0.25 -0.01,0.02 -0.01,0.05 -0.02,0.07 -0.04,0.09 -0.07,0.19 -0.1,0.28 l -81.85,-28.32 c -0.46,15.91 -0.85,31.84 -1.16,47.74 7.4,12.68 14.55,23.85 20.4,31.56 50.84,67.03 148.3,129.76 199.68,183.19 -25.03,-62.54 -63.58,-156.18 -122.08,-293.07 m -98.89,174.81 c 0.18,79.23 2.74,156 8.72,225.51 l 63.53,189.39 397.58,-36.79 -12.05,-67.15 -184.53,-66.22 c 0,0 -1.18,-3.52 -4.22,-11.81 l -4.76,-1.34 c 0,0 -3.3,-10.17 -13.78,-37.85 -5.77,10.99 -15.49,15.69 -27.68,15.69 -48.02,0 -134.63,-72.9 -171.5,-121.48 -20.24,-26.68 -35.71,-57.51 -51.31,-87.95" /><path
         id="path42"
         style="fill:#719ba6;fill-opacity:1;fill-rule:nonzero;stroke:none"
         d="m 2889.46,2098.65 c 1.77,20.64 3.85,40.66 6.26,59.9 7.27,58.11 20.79,135.72 -29.35,136.94 -7.95,-15.9 -15.09,-34.2 -21.52,-54.43 0.95,19.33 2.1,38.29 3.47,56.67 l 104.67,-9.69 -63.53,-189.39" /><path
         id="path44"
         style="fill:#4c3d3d;fill-opacity:1;fill-rule:nonzero;stroke:none"
         d="m 2708.09,3226.37 c -10.53,10.61 -28.42,16.91 -38.41,5.56 5.79,16.9 -0.56,36.41 -11.59,49.7 -11.02,13.28 -26.02,21.63 -40.67,29.7 -6.35,3.49 -13.41,7.08 -20.32,5.13 -5.97,-1.69 -10.38,-7.17 -14.03,-12.63 -8.38,-12.57 -14.89,-26.64 -19.17,-41.46 l -95.98,-342.13 c -1.62,-16.48 17.53,-28.39 31.71,-22.56 14.17,5.83 22.1,23.02 23.7,39.51 4.92,-4.73 13.53,-3.62 17.38,2.24 2.49,3.8 2.99,8.82 5.46,12.64 3.23,5.02 9.05,6.93 14.08,9.64 11.57,6.22 20.34,18.4 23.18,32.16 1.91,9.27 1.3,19.22 4.82,27.92 3.52,8.69 13.94,15.31 20.85,9.65 5.64,-4.62 5.81,-14.76 11.8,-18.83 8,-5.44 17.41,4.32 22.45,13.1 5.43,9.44 10.54,19.09 15.32,28.93 1.8,-5.8 9.01,-7.66 14.12,-5.13 5.1,2.53 8.41,8.04 10.95,13.52 6,12.9 8.68,30.34 -0.72,40.38 9.57,-4.18 20.34,2.5 27.57,10.64 26.68,30.01 25.47,84.15 -2.5,112.32" /><path
         id="path46"
         style="fill:#4c3d3d;fill-opacity:1;fill-rule:nonzero;stroke:none"
         d="m 2245.09,3346.5 c -35.49,23.9 -65.42,14.83 -69.58,-10.64 -1.85,-11.29 -12.09,-19.56 -11.35,-30.96 0.75,-11.4 8.55,-23.69 21.2,-28.85 -16.7,1.11 -36.38,1.05 -44.37,-10.5 -7.95,-11.51 0.78,-27.78 12.03,-39.28 14.79,-15.13 34.24,-27.09 55.38,-34.07 -15.07,-9.32 -13.47,-32.58 2.99,-43.6 -22.35,0.66 -39.35,-17 -38.28,-36 1.07,-19 17.33,-37.43 37.66,-47.52 6.86,-10.31 -7.98,-19.49 -9.02,-30.56 -0.58,-6.16 3.33,-12.51 8.22,-17.7 12.35,-13.12 31.98,-21.27 50.51,-20.96 l 45.33,366.67 c -15.89,17.5 -45.63,8.93 -60.72,-16.03" /><path
         id="path48"
         style="fill:#f2ecda;fill-opacity:1;fill-rule:nonzero;stroke:none"
         d="m 1732.72,1091.53 h 1178.92 c 0,0 -145.04,1134.29 -18.59,1450.41 -79.96,47.41 -468.75,240.56 -602.48,241.73 -96.69,0.84 -496.49,-79.96 -496.49,-79.96 0,0 -113.43,-756.81 -61.36,-1612.18" /><path
         id="path50"
         style="fill:#e2d8bf;fill-opacity:1;fill-rule:nonzero;stroke:none"
         d="m 2752.25,1478.71 c -32.36,-97.1 -158.21,-294.41 -172.81,-387.18 h 350.31 c 0,0 -81.83,684.97 -34.03,1067.02 7.27,58.11 20.79,135.72 -29.35,136.94 -92.97,-185.95 -74.99,-699.39 -114.12,-816.78" /><path
         id="path52"
         style="fill:#e8dec5;fill-opacity:1;fill-rule:nonzero;stroke:none"
         d="m 1790.38,2505.8 c 0,0 -132.04,-495.68 -79.58,-1414.27 h 604.54 c -250.97,174.7 -407.58,1005.07 -410.47,1309.7 -1.03,107.29 -98.45,111.73 -114.49,104.57" /><path
         id="path54"
         style="fill:#f2ecda;fill-opacity:1;fill-rule:nonzero;stroke:none"
         d="m 2817.8,2580.97 c 416.54,-176.18 604.04,-305.47 635.48,-350.69 31.44,-45.23 -259.92,-273.88 -278.78,-257.59 -73.36,63.38 -341.91,135.59 -341.91,135.59 l -14.79,472.69" /><path
         id="path56"
         style="fill:#e2d8bf;fill-opacity:1;fill-rule:nonzero;stroke:none"
         d="m 2791.79,2187.89 35.46,-86.81 c 0,0 273.89,-65.01 347.25,-128.39 5.6,-4.84 62.17,60.88 100.26,88.04 -77.49,53.61 -209.6,54.66 -329.92,90.89 -38.89,11.71 -115.75,28.64 -153.05,36.27" /><path
         id="path58"
         style="fill:#e79b69;fill-opacity:1;fill-rule:nonzero;stroke:none"
         d="m 2845.19,1246.44 c 81.66,-6.03 151.5,38.36 173.92,92.74 22.42,54.37 166.1,317.96 166.1,317.96 l -133.63,112.88 c 0,0 -62.34,-172.43 -135.35,-230.82 -73.01,-58.38 -71.04,-292.76 -71.04,-292.76" /><path
         id="path60"
         style="fill:#f2ecda;fill-opacity:1;fill-rule:nonzero;stroke:none"
         d="m 3455.14,2225.95 -301.15,-108.07 c 0,0 -29.98,-89.48 -176.02,-426.61 l 265,-312 c 319.54,699.39 212.17,846.68 212.17,846.68" /><path
         id="path62"
         style="fill:#e2d8bf;fill-opacity:1;fill-rule:nonzero;stroke:none"
         d="m 2977.97,1694.45 56.75,-68.64 c 20.54,46.86 39.64,97.37 56.42,150.14 40.78,128.36 60,245.59 58.63,330.12 l -4.76,-1.34 c 0,0 -26.48,-81.53 -167.04,-410.28" /><path
         id="path64"
         style="fill:#f2ecda;fill-opacity:1;fill-rule:nonzero;stroke:none"
         d="m 886.648,2694.42 c 77.778,64.05 1134.822,60.53 1204.752,62.34 69.93,1.81 -301.04,-522.57 -301.04,-522.57 0,0 -806.09,72.52 -878.61,133.88 -72.52,61.37 -72.52,287.3 -25.102,326.35" /><path
         id="path66"
         style="fill:#e8dec5;fill-opacity:1;fill-rule:nonzero;stroke:none"
         d="m 1739.03,2390.86 c -311.59,0 -687.6,95.52 -884.479,197.76 -4.891,-80.87 12.16,-182.44 57.199,-220.55 72.52,-61.36 865.59,-173.66 865.59,-173.66 0,0 76.62,112.49 127.53,206.82 -50,-6.62 -105.02,-10.37 -165.84,-10.37" /><path
         id="path68"
         style="fill:#bfaf8e;fill-opacity:1;fill-rule:nonzero;stroke:none"
         d="m 2814.55,826.559 h -419.89 l 36.1,107.64 h 116.94 c 7.74,0 14.02,4.821 14.02,10.77 0,5.953 -6.28,10.769 -14.02,10.769 h -109.71 l 34.05,101.512 c 58.29,2.45 120.69,11.27 187.21,28.06 7.56,1.91 14.96,3.98 22.2,6.22 h 109.16 c 41.33,-111.659 30.09,-224.35 23.94,-264.971" /><path
         id="path70"
         style="fill:#c8b799;fill-opacity:1;fill-rule:nonzero;stroke:none"
         d="m 2394.66,826.559 h -839.95 c 69.42,98.601 149.22,188.431 234.93,264.971 h 422.6 c 66.1,-21.57 141.34,-35 225.75,-35 11.19,0 22.55,0.24 34.05,0.72 l -34.05,-101.512 h -234.07 c -7.75,0 -14.03,-4.816 -14.03,-10.769 0,-5.949 6.28,-10.77 14.03,-10.77 h 226.84 l -36.1,-107.64" /><path
         id="path72"
         style="fill:#ae9c78;fill-opacity:1;fill-rule:nonzero;stroke:none"
         d="M 2811.79,810.75 H 1543.72 c 3.64,5.301 7.3,10.559 10.99,15.809 h 839.95 419.89 c -1.54,-10.161 -2.76,-15.809 -2.76,-15.809" /><path
         id="path74"
         style="fill:#978361;fill-opacity:1;fill-rule:nonzero;stroke:none"
         d="m 2547.7,934.199 h -343.78 c -7.75,0 -14.03,4.821 -14.03,10.77 0,5.953 6.28,10.769 14.03,10.769 h 234.07 109.71 c 7.74,0 14.02,-4.816 14.02,-10.769 0,-5.949 -6.28,-10.77 -14.02,-10.77" /><path
         id="path76"
         style="fill:#baaa88;fill-opacity:1;fill-rule:nonzero;stroke:none"
         d="m 2790.61,1091.53 h -109.16 c 33.77,10.42 64.14,24.33 91.39,41.05 6.79,-13.58 12.68,-27.31 17.77,-41.05" /><path
         id="path78"
         style="fill:#bfae8c;fill-opacity:1;fill-rule:nonzero;stroke:none"
         d="m 2212.24,1091.53 h -422.6 c 58.85,52.56 120.47,98.85 183.43,137.43 58.15,-52.23 137.91,-104.39 239.17,-137.43" /><path
         id="path80"
         style="fill:#edb984;fill-opacity:1;fill-rule:nonzero;stroke:none"
         d="m 1713.69,2241.46 -133.92,-163.47 320.77,-147.83 89.93,145.81 -276.78,165.49" /><path
         id="path82"
         style="fill:#e79b69;fill-opacity:1;fill-rule:nonzero;stroke:none"
         d="m 1875.16,2041.98 c 0,34.32 3.03,67.24 8.56,97.82 l -170.03,101.66 -133.92,-163.47 305.26,-140.68 c -6.35,32.49 -9.87,67.76 -9.87,104.67" /><path
         id="path84"
         style="fill:#e8dec5;fill-opacity:1;fill-rule:nonzero;stroke:none"
         d="m 2292.38,2577.65 c 158.09,0 300.18,25.8 398.35,66.81 -143.18,66.77 -318.82,138.5 -400.16,139.21 -38.11,0.33 -123.31,-12.02 -212.55,-27.11 -43.38,-0.44 -166.2,-0.68 -317.49,-2.59 33.71,-99.44 258.89,-176.32 531.85,-176.32" /><path
         id="path86"
         style="fill:#e79b69;fill-opacity:1;fill-rule:nonzero;stroke:none"
         d="m 2123.95,2763.22 c 0,0 103.39,-87.4 222.4,-132.03 0,0 119.49,39.12 183.4,77.21 0,0 -133.19,65.04 -211.29,79.92 -65.92,12.56 -194.51,-25.1 -194.51,-25.1" /><path
         id="path88"
         style="fill:#d3c6a9;fill-opacity:1;fill-rule:nonzero;stroke:none"
         d="m 2538.15,1735.48 c -1.01,14.8 -11.44,26.8 -23.3,26.8 -11.85,0 -20.65,-12 -19.64,-26.8 1,-14.79 11.43,-26.78 23.29,-26.78 11.86,0 20.65,11.99 19.65,26.78" /><path
         id="path90"
         style="fill:#d3c6a9;fill-opacity:1;fill-rule:nonzero;stroke:none"
         d="m 2532.79,1903.3 c -1.01,14.79 -11.44,26.79 -23.3,26.79 -11.85,0 -20.65,-12 -19.64,-26.79 1,-14.8 11.43,-26.79 23.29,-26.79 11.86,0 20.65,11.99 19.65,26.79" /><path
         id="path92"
         style="fill:#d3c6a9;fill-opacity:1;fill-rule:nonzero;stroke:none"
         d="m 2523.47,2094.97 c -1,14.79 -11.43,26.79 -23.29,26.79 -11.86,0 -20.65,-12 -19.65,-26.79 1.01,-14.8 11.44,-26.79 23.3,-26.79 11.85,0 20.65,11.99 19.64,26.79" /><path
         id="path94"
         style="fill:#d3c6a9;fill-opacity:1;fill-rule:nonzero;stroke:none"
         d="m 2505.07,2268.48 c -1.01,14.8 -11.43,26.79 -23.29,26.79 -11.86,0 -20.65,-11.99 -19.65,-26.79 1.01,-14.79 11.44,-26.79 23.29,-26.79 11.86,0 20.66,12 19.65,26.79" /><path
         id="path96"
         style="fill:#d3c6a9;fill-opacity:1;fill-rule:nonzero;stroke:none"
         d="m 2496.57,2466.67 c -1,14.8 -11.43,26.79 -23.29,26.79 -11.86,0 -20.65,-11.99 -19.65,-26.79 1.01,-14.79 11.44,-26.79 23.3,-26.79 11.85,0 20.65,12 19.64,26.79" /><path
         id="path98"
         style="fill:#d3c6a9;fill-opacity:1;fill-rule:nonzero;stroke:none"
         d="m 2616.95,1089.67 -77.04,1443.03 c -32.46,11.86 -301.56,126.37 -422.44,230.39 l 15.39,2.61 c 126.47,-108.83 422.27,-216.22 425.29,-217.31 l 3.1,-1.1 0.14,-3.28 65.32,-1453.9 -9.76,-0.44" /><path
         id="path100"
         style="fill:#d27558;fill-opacity:1;fill-rule:nonzero;stroke:none"
         d="m 2204.37,2781.96 61.56,272.27 248.24,-44.63 -49.81,-271.49 c -95.37,-23.24 -186.02,-25.91 -259.99,43.85" /><path
         id="path102"
         style="fill:#edb984;fill-opacity:1;fill-rule:nonzero;stroke:none"
         d="m 2556.28,3003.16 c 59.72,-22.93 79.64,24.38 95.38,53.28 15.74,28.9 34.05,68.23 16.34,84.06 -17.71,15.83 -49.07,-14.6 -78.21,-51.34 -23.93,-30.19 -33.51,-86 -33.51,-86" /><path
         id="path104"
         style="fill:#d27558;fill-opacity:1;fill-rule:nonzero;stroke:none"
         d="m 2579.21,3021.17 c 35.88,-13.46 49.08,17.49 59.32,36.48 10.23,18.99 22.27,44.77 11.83,54.59 -10.45,9.81 -30.24,-10.51 -48.81,-34.86 -15.27,-20 -22.34,-56.21 -22.34,-56.21" /><path
         id="path106"
         style="fill:#edb984;fill-opacity:1;fill-rule:nonzero;stroke:none"
         d="m 2575.82,3022.52 c 25.08,-13.78 32.92,5.14 39.19,16.47 6.27,11.32 13.51,26.95 5.98,34.9 -7.53,7.95 -20.28,-2.99 -32.05,-16.78 -9.67,-11.33 -13.12,-34.59 -13.12,-34.59" /><path
         id="path108"
         style="fill:#4c3d3d;fill-opacity:1;fill-rule:nonzero;stroke:none"
         d="m 2667.48,3262.25 c -43.2,-134.49 -57.41,-185.16 -72.55,-290.19 -7.5,-52.04 -53.8,-17.93 -53.8,-17.93 l 101.89,326.87 24.46,-18.75" /><path
         id="path110"
         style="fill:#edb984;fill-opacity:1;fill-rule:nonzero;stroke:none"
         d="m 2238.55,3067.9 c -64.15,5.58 -65.55,59.97 -69.73,94.84 -4.19,34.86 -6.98,80.88 15.34,87.86 22.31,6.97 40.54,-36.55 54.39,-85.07 11.38,-39.88 0,-97.63 0,-97.63" /><path
         id="path112"
         style="fill:#d27558;fill-opacity:1;fill-rule:nonzero;stroke:none"
         d="m 2223.68,3099.6 c -40.04,1.8 -42.32,35.58 -45.83,57.15 -3.51,21.57 -6.44,50.11 7.25,55.03 13.7,4.92 26.16,-21.67 36.04,-51.48 8.11,-24.5 2.54,-60.7 2.54,-60.7" /><path
         id="path114"
         style="fill:#edb984;fill-opacity:1;fill-rule:nonzero;stroke:none"
         d="m 2226.25,3096.73 c -27.67,0.66 -29.01,18.32 -31.28,29.59 -2.28,11.27 -4.1,26.19 5.4,28.86 9.5,2.67 17.93,-11.16 24.55,-26.7 5.44,-12.76 1.33,-31.75 1.33,-31.75" /><path
         id="path116"
         style="fill:#4c3d3d;fill-opacity:1;fill-rule:nonzero;stroke:none"
         d="m 2267.98,3370.05 c -19.83,-141.13 -29.3,-193.25 -62.8,-294.15 -16.61,-50 43.9,-42.84 43.9,-42.84 l 51.19,341.42 -32.29,-4.43" /><path
         id="path118"
         style="fill:#edb984;fill-opacity:1;fill-rule:nonzero;stroke:none"
         d="m 2218.05,2872.93 c -9.28,30.61 46.48,401.65 72.52,468.59 26.03,66.94 197.11,63.22 234.29,55.79 37.19,-7.44 106.93,-110.64 116.22,-136.68 9.3,-26.03 -125.51,-421.17 -145.97,-443.49 -29.12,-31.77 -258.47,-5.58 -277.06,55.79" /><path
         id="path120"
         style="fill:#ddd2b8;fill-opacity:1;fill-rule:nonzero;stroke:none"
         d="m 2668.61,3237.45 c -128.53,117.27 -273.71,131.65 -425,108.25 l -9.76,291.48 410.02,75.31 154.81,-283.11 -130.07,-191.93" /><path
         id="path122"
         style="fill:#f2ecda;fill-opacity:1;fill-rule:nonzero;stroke:none"
         d="m 2468.58,3483.97 c -90.96,9.32 -172.39,-39.29 -209.59,-136.03 140.79,19.37 275.94,3.92 396.9,-99.28 2.2,129.63 -79.45,224.26 -187.31,235.31" /><path
         id="path124"
         style="fill:#ddd2b8;fill-opacity:1;fill-rule:nonzero;stroke:none"
         d="m 2569.35,3307.08 c 4.72,-2.43 9.43,-4.99 14.12,-7.63 l 59.96,181.73 -74.08,-174.1" /><path
         id="path126"
         style="fill:#ddd2b8;fill-opacity:1;fill-rule:nonzero;stroke:none"
         d="m 2484.41,3339.54 c 5.18,-1.36 10.35,-2.82 15.49,-4.39 l 42.32,188.12 -57.81,-183.73" /><path
         id="path128"
         style="fill:#ddd2b8;fill-opacity:1;fill-rule:nonzero;stroke:none"
         d="m 2400.72,3353.49 c 5.36,-0.42 10.69,-0.93 16.02,-1.51 l 18.77,190.98 -34.79,-189.47" /><path
         id="path130"
         style="fill:#ddd2b8;fill-opacity:1;fill-rule:nonzero;stroke:none"
         d="m 2309.19,3353.28 c 5.36,0.4 10.71,0.74 16.05,1.01 l -8.71,191.31 -7.34,-192.32" /><path
         id="path132"
         style="fill:#f2ecda;fill-opacity:1;fill-rule:nonzero;stroke:none"
         d="m 3166.24,3595.79 c -17.59,96.05 -45.46,194.51 -107.56,267.62 -62.62,73.71 -165.9,114.22 -256.18,75 -11.79,-5.12 -25.18,-15.14 -23.88,-28.57 -10.57,40.35 -38.62,72.64 -71.82,93.21 -33.22,20.59 -71.26,30.4 -109.23,36.62 -44.58,7.3 -90.85,9.81 -134.14,-4.86 -42.98,-14.58 -82.58,-48.46 -97.34,-95.29 -65.78,102.57 -199.46,140.4 -298.39,84.96 -33.95,-19.03 -63.03,-47.17 -88.13,-78.44 -31.1,-38.75 -56.94,-83.68 -67.3,-134.25 -18.55,-90.59 19.47,-193.75 89.58,-245.96 69.84,-52.01 168.25,-51 234.51,3.06 l 37.86,-14.14 c 41.08,5.28 82.74,7.58 124.56,6.85 89.03,-1.55 183.58,-19.31 250.73,-81.98 24.8,-23.15 45.93,-52.37 76.83,-65.07 28.74,-11.82 70.05,0.45 78.7,30.46 -8.16,-46.52 16.93,-94.28 54.53,-119.29 39.45,-26.24 89.95,-31.22 138.02,-25.47 49.71,5.94 101.7,24.43 135.77,64.33 52.56,61.57 47.32,152.33 32.88,231.21" /><path
         id="path134"
         style="fill:#f2ecda;fill-opacity:1;fill-rule:nonzero;stroke:none"
         d="m 1857.3,2164.46 c -58.57,-189.67 -256.61,-454.65 -256.61,-454.65 0,0 -641.522,426.76 -700.096,605.27 -58.574,178.51 -47.203,321.6 -32.703,348.39 8.695,16.07 344.749,-138.23 626.809,-287.03 188.41,-99.39 362.6,-211.98 362.6,-211.98" /><path
         id="path136"
         style="fill:#e8dec5;fill-opacity:1;fill-rule:nonzero;stroke:none"
         d="m 1465.16,1935.43 c -356.53,241.89 -595.758,545.67 -587.707,728.41 -5.437,1.06 -8.808,1.03 -9.562,-0.37 -14.5,-26.79 -25.871,-169.88 32.703,-348.39 58.574,-178.51 700.096,-605.27 700.096,-605.27 0,0 30.29,40.56 70.64,101.18 -67.69,35.94 -136.9,77.44 -206.17,124.44" /><path
         id="path138"
         style="fill:#edb984;fill-opacity:1;fill-rule:nonzero;stroke:none"
         d="m 2166.4,1905.78 c 8.29,35.01 -0.08,72.8 -18.7,84.41 -18.62,11.61 -40.44,-7.36 -48.73,-42.37 -8.3,-35 0.07,-72.79 18.69,-84.4 18.62,-11.61 40.44,7.35 48.74,42.36" /><path
         id="path140"
         style="fill:#edb984;fill-opacity:1;fill-rule:nonzero;stroke:none"
         d="m 2147.27,2004.25 c -8.89,38.33 -33.89,69.4 -55.83,69.4 -21.94,0 -32.53,-31.07 -23.64,-69.4 8.89,-38.33 33.88,-69.4 55.83,-69.4 21.94,0 32.52,31.07 23.64,69.4" /><path
         id="path142"
         style="fill:#635a57;fill-opacity:1;fill-rule:nonzero;stroke:none"
         d="m 2305.36,1784.9 -0.88,6.22 5.64,0.79 -258.75,257.02 2.41,-17.15 251.58,-246.88" /><path
         id="path144"
         style="fill:#635a57;fill-opacity:1;fill-rule:nonzero;stroke:none"
         d="m 2185.56,1906.43 c 16.18,13.16 -164.1,195.78 -170.77,202.76 -6.66,6.99 -17.18,-47.95 -13.41,-55.34 3.77,-7.39 127.39,-130.64 133.84,-135.67 6.45,-5.04 46.39,-14.96 50.34,-11.75" /><path
         id="path146"
         style="fill:#635a57;fill-opacity:1;fill-rule:nonzero;stroke:none"
         d="m 2489.77,1510.91 c 21.75,3.05 41.63,12.89 58.21,28.96 47.84,46.34 42.14,119.36 -13.88,177.59 -51.1,53.12 -176.57,91.98 -225.09,92.84 -13.03,0.24 -16.96,-2.18 -18.05,-3.24 -17.3,-16.76 20.03,-183.97 80.66,-247.01 30.52,-31.72 66.55,-49.52 101.43,-50.14 5.68,-0.1 11.26,0.23 16.72,1 m -191.95,306.3 c 3.23,0.45 6.99,0.64 11.32,0.56 55.56,-0.98 179.5,-42.27 230.34,-95.13 59.06,-61.38 64.69,-138.75 13.7,-188.14 -22.2,-21.51 -49.96,-32.61 -80.26,-32.06 -36.89,0.65 -74.78,19.27 -106.68,52.44 -59.69,62.04 -102.6,236.12 -80.47,257.56 2.48,2.4 6.46,3.98 12.05,4.77" /><path
         id="path148"
         style="fill:#635a57;fill-opacity:1;fill-rule:nonzero;stroke:none"
         d="m 2517.62,1525.47 c 11.91,1.67 22.27,6.56 30.36,14.4 32.43,31.41 15.96,94.01 -40.05,152.25 -62.77,65.24 -206.34,123.98 -216.97,114.94 -9.33,-10.43 44.03,-156.37 106.84,-221.65 36.47,-37.91 76.21,-59.99 109.04,-60.57 3.72,-0.07 7.31,0.15 10.78,0.63 m -226.01,289.48 c 1.12,0.15 2.36,0.22 3.73,0.19 33.24,-0.58 160.35,-57.94 217.97,-117.84 59.06,-61.39 75.45,-128.34 39.87,-162.8 -11.91,-11.53 -27.98,-17.47 -46.47,-17.13 -35.31,0.62 -75.9,22.94 -114.3,62.86 -57.45,59.7 -124.21,215.19 -106.64,232.21 1.36,1.32 3.29,2.15 5.84,2.51" /><path
         id="path150"
         style="fill:#635a57;fill-opacity:1;fill-rule:nonzero;stroke:none"
         d="m 2544.8,1538.49 c 1.36,0.19 2.43,0.66 3.18,1.38 7.89,7.63 -10.53,49.06 -76.15,117.28 -55.04,57.21 -152.35,132.16 -177.71,146.62 13.48,-25.91 84.69,-126.14 139.77,-183.4 57.83,-60.11 94.9,-81.73 109.07,-81.98 l 1.84,0.1 m -257.92,275.02 2.19,0.16 c 12.89,-0.23 129,-89.86 188.14,-151.34 46.27,-48.1 93.94,-110.44 75.97,-127.83 -2.53,-2.46 -6.01,-3.67 -10.36,-3.58 -21.17,0.37 -63.91,31.88 -114.31,84.28 -26.86,27.91 -62.98,72.2 -96.64,118.48 -52.65,72.41 -48.39,76.53 -46.11,78.76 l 1.12,1.07" /><path
         id="path152"
         style="fill:#d8a656;fill-opacity:1;fill-rule:nonzero;stroke:none"
         d="m 2932.05,1961.09 c -53.48,-70.49 -73.68,-170 -150.82,-214.71 -16.09,-9.31 -42.6,-12.2 -49.35,5.4 -1.69,4.42 -1.56,9.23 -1.41,13.89 1.15,35 42.12,105.66 3.45,104.99 -31.8,-5.59 -50.5,-36.85 -63.35,-65.79 -17.95,-40.43 -32.43,-82.46 -43.22,-125.48 -5.17,-20.59 -9.68,-41.87 -21.12,-59.67 -11.43,-17.81 -31.75,-32.31 -53.35,-29.25 -71.04,10.08 -42.81,63.6 -54.66,69.32 -19.64,-2.29 -16.8,-51.54 -25.19,-77.3 -1.55,-4.73 -3.38,-9.84 -7.69,-12.38 -5.2,-3.07 -12.01,-1.28 -17.73,1.1 -39.88,16.63 -65.33,57.25 -75.99,98.35 -10.67,41.11 -9.24,83.79 -11.41,125.9 -0.4,7.62 -1.39,16.2 -7.46,21.14 -10.15,8.24 -25.09,-0.29 -32.6,-10.43 -20.79,-28.08 -20.73,-66.96 -11.95,-101.43 8.79,-34.47 25.25,-66.84 35.09,-101.07 3.21,-11.18 -4.5,-40.32 -15.63,-43.6 -5.91,-1.73 -12.23,1.24 -17.82,4.12 -32.19,16.63 -65.49,89.79 -88.58,63.5 -24.34,-27.71 53.62,-41.87 75.97,-72.59 3.32,-4.57 6.75,-9.41 7.38,-14.92 1.55,-13.62 -22.64,-42.52 -36.25,-44.8 -21.62,-3.6 -47.3,4.82 -68.66,13.24 -26.1,10.3 -45.74,20.59 -43.58,8.92 2.52,-13.04 39.06,-7.11 31.9,-44.84 -57.99,-17 -121.27,6.18 -176.03,34.47 -54.77,28.28 -203.19,106.43 -203.17,68.27 0.04,-79.17 191.24,-19.48 223.95,-134.12 6.99,-24.5 -47.06,-11.37 -97.38,1.76 -38.61,10.07 -75.03,20.15 -79.99,13.22 -8.46,-15.6 57.26,-45.86 93.04,-51.91 35.78,-6.04 72.13,-2.71 107.97,0.63 l 717.88,172.44 c 22.99,3.1 39.55,23.21 47.67,44.44 8.12,21.24 10.08,44.45 17,66.12 9.8,30.71 43.62,94.55 63.07,120.19 77.15,101.73 261.7,193.55 229.54,258 -27.83,55.76 -153.11,-43.95 -199.52,-105.12" /><path
         id="path154"
         style="fill:#e79b69;fill-opacity:1;fill-rule:nonzero;stroke:none"
         d="m 2959.68,1272.83 c -34.81,-40.28 -122.27,-68.8 -136.78,-70.53 -14.51,-1.72 -28.19,41.85 -14.24,50.3 13.95,8.45 105.25,39.35 142.09,67.23 23.03,17.43 29.5,-23.21 8.93,-47" /><path
         id="path156"
         style="fill:#e5c58c;fill-opacity:1;fill-rule:nonzero;stroke:none"
         d="m 1860.09,1375.1 1104.55,382.13 c 52.99,-145.04 41.38,-584.41 -305.39,-671.92 -495.63,-125.072 -762.89,192.17 -799.16,289.79" /><path
         id="path158"
         style="fill:#efd1a0;fill-opacity:1;fill-rule:nonzero;stroke:none"
         d="m 1867.24,1377.57 c 154.28,-66.44 385.65,-86.6 634.86,-43.28 190.17,33.06 357.94,97.46 481.4,177.01 11.18,100.27 0.54,192.84 -18.86,245.93 l -1097.4,-379.66" /><g
         id="g160"><g
           clip-path="url(#clipPath166)"
           id="g162"><path
             id="path168"
             style="fill:#c6815f;fill-opacity:1;fill-rule:nonzero;stroke:none"
             d="m 1898.83,1235.8 h 288.66 v 103.5 h -288.66 z" /></g></g><path
         id="path170"
         style="fill:#cf896c;fill-opacity:1;fill-rule:nonzero;stroke:none"
         d="m 2187.49,1312.56 c -72.91,3.08 -141.05,12.2 -202.36,26.74 l 996.69,344.81 c 4.06,-28.37 6.34,-60.41 6.2,-94.6 l -800.53,-276.95" /><path
         id="path172"
         style="fill:#e79b69;fill-opacity:1;fill-rule:nonzero;stroke:none"
         d="m 2823.99,1313.74 c 20.44,12.54 73.74,35.56 95.82,49.12 16.11,9.9 50.66,11.27 86.62,29.57 37.05,18.85 88.95,149.96 15.01,127.41 -69.96,-21.34 -88.8,-65.51 -125.09,-96.73 -18.86,-16.23 -50.53,-29.86 -91.78,-65.38 -11.8,-10.16 5.93,-52.27 19.42,-43.99" /><path
         id="path174"
         style="fill:#e79b69;fill-opacity:1;fill-rule:nonzero;stroke:none"
         d="m 2955.98,1282.11 c -43.16,-38.54 -139.63,-61.42 -155.13,-62.15 -15.51,-0.74 -22.69,44.55 -6.66,52.17 16.03,7.61 116.92,32.65 160.16,58.42 27.03,16.12 27.12,-25.68 1.63,-48.44" /><path
         id="path176"
         style="fill:#e8dfc8;fill-opacity:1;fill-rule:nonzero;stroke:none"
         d="m 3148.8,3415.82 c -121.48,-45.29 -272.69,59.47 -337.74,233.97 -39.32,105.49 -38.09,212.27 -4.17,290.28 -1.46,-0.59 -2.94,-1.03 -4.39,-1.66 -11.79,-5.12 -25.18,-15.14 -23.88,-28.57 -0.78,2.97 -1.84,5.8 -2.81,8.69 -34.1,-90.79 -110.99,-154.15 -200.44,-154.15 -96.67,0 -178.63,74 -207.81,176.65 -22.95,-129.5 -125.54,-227.19 -248.67,-227.19 -83,0 -156.68,44.39 -202.93,112.98 -1.34,-4.97 -2.65,-9.95 -3.69,-15.03 -18.55,-90.59 19.47,-193.75 89.58,-245.96 69.84,-52.01 168.25,-51 234.51,3.06 l 37.86,-14.14 c 41.08,5.28 82.74,7.58 124.56,6.85 89.03,-1.55 183.58,-19.31 250.73,-81.98 24.8,-23.15 45.93,-52.37 76.83,-65.07 28.74,-11.82 70.05,0.45 78.7,30.46 -8.16,-46.52 16.93,-94.28 54.53,-119.29 39.45,-26.24 89.95,-31.22 138.02,-25.47 49.71,5.94 101.7,24.43 135.77,64.33 14.88,17.43 25,37.25 31.72,58.43 -5.28,-2.64 -10.67,-5.1 -16.28,-7.19" /><path
         id="path178"
         style="fill:#edb984;fill-opacity:1;fill-rule:nonzero;stroke:none"
         d="m 1945.56,2102.82 c 98.1,-14.08 90.06,-1 136.32,-21.12 46.27,-20.12 30.19,-51.08 40.24,-86.39 10.06,-35.32 53.31,-119.81 9.05,-135.9 -44.26,-16.1 -160.94,-17.1 -182.06,10.05 -21.12,27.16 -29.17,57.34 -61.36,68.4 -32.18,11.07 57.81,164.96 57.81,164.96" /><path
         id="path180"
         style="fill:#443239;fill-opacity:1;fill-rule:nonzero;stroke:none"
         d="m 2466.37,2946.48 c -1.36,-3.94 -2.71,-7.87 -4.48,-11.76 -18.72,-41.07 -56.94,-67.04 -89.53,-58.16 -33.98,9.27 -51.33,52.8 -37.9,101.89 l 131.91,-31.97" /><path
         id="path182"
         style="fill:#f4e9d6;fill-opacity:1;fill-rule:nonzero;stroke:none"
         d="m 2438.84,2911.65 -94.81,14.58 c -4.34,13.24 -5.69,28.54 -1.71,44.67 l 113.62,-28.59 c -0.96,-3.07 -1.91,-6.14 -3.24,-9.18 -3.61,-8.25 -8.37,-15.43 -13.86,-21.48" /><path
         id="path184"
         style="fill:#5a4949;fill-opacity:1;fill-rule:nonzero;stroke:none"
         d="m 2375.39,3113.07 c 2.31,20.08 -5.86,36.82 -18.28,37.45 -12.47,0.62 -24.55,-15.22 -26.94,-35.44 -2.39,-20.27 5.88,-37.14 18.43,-37.63 12.5,-0.48 24.48,15.49 26.79,35.62" /><path
         id="path186"
         style="fill:#5a4949;fill-opacity:1;fill-rule:nonzero;stroke:none"
         d="m 2534.06,3075.35 c 2.31,20.08 -5.86,36.82 -18.28,37.45 -12.47,0.62 -24.55,-15.22 -26.93,-35.44 -2.39,-20.27 5.87,-37.14 18.42,-37.63 12.5,-0.48 24.48,15.49 26.79,35.62" /><path
         id="path188"
         style="fill:#4c3d3d;fill-opacity:1;fill-rule:nonzero;stroke:none"
         d="m 2404.57,3234.25 -79.55,2.99 c -9.96,0.38 -19.27,-8.69 -20.75,-20.26 l -2.95,-22.98 c -1.49,-11.6 5.44,-21.21 15.44,-21.45 l 79.84,-1.92 c 9.63,-0.23 18.55,8.76 19.96,20.08 l 2.8,22.43 c 1.41,11.3 -5.2,20.75 -14.79,21.11" /><path
         id="path190"
         style="fill:#4c3d3d;fill-opacity:1;fill-rule:nonzero;stroke:none"
         d="m 2582.74,3165.02 -65.16,44.06 c -8.15,5.51 -19.33,2.01 -24.93,-7.86 l -11.12,-19.59 c -5.61,-9.89 -3.46,-22.31 4.78,-27.73 l 65.81,-43.22 c 7.93,-5.21 18.76,-1.58 24.2,8.1 l 10.79,19.16 c 5.44,9.66 3.49,21.77 -4.37,27.08" /><path
         id="path192"
         style="fill:#4c3d3d;fill-opacity:1;fill-rule:nonzero;stroke:none"
         d="m 2413.11,3003.29 c -4.16,2.46 -9.7,1.32 -14.2,-0.22 -10.27,-3.51 -19.63,-8.51 -29.49,-12.71 -42.7,-18.17 -95.34,-20.59 -142.31,-6.54 -46.98,14.05 -87.64,44.38 -109.93,82 l -6.78,-4.49 c 22.15,-42.85 65.2,-78.6 116.51,-96.76 51.31,-18.16 139.75,-19.09 188.92,-1.49 16.19,5.8 3.75,17.12 2,32.18 -0.35,3.02 -1.7,6.25 -4.72,8.03" /><path
         id="path194"
         style="fill:#4c3d3d;fill-opacity:1;fill-rule:nonzero;stroke:none"
         d="m 2706.95,2913.03 c -39.25,-21.51 -90.06,-27.94 -137.35,-17.38 -47.29,10.56 -90.42,37.96 -116.59,74.08 -6.05,8.34 -11.24,17.13 -18.01,25.08 -2.96,3.49 -7.01,7.13 -11.86,7.02 -3.53,-0.07 -6.41,-2.19 -8.35,-4.61 -9.66,-12.06 -26.5,-15.21 -15.98,-27.96 31.95,-38.75 107.32,-81.08 160.5,-90.2 53.19,-9.13 108.95,0.8 150.92,26.86 l -3.28,7.11" /><path
         id="path196"
         style="fill:#d27558;fill-opacity:1;fill-rule:nonzero;stroke:none"
         d="m 2441.38,3074.12 c 0,0 -4.17,-2.31 -10.14,-6.17 4.28,-31.98 2.07,-82.95 -47.96,-55.4 -0.21,-1.25 -0.83,-2.45 -0.91,-3.7 79.94,-57.84 65.53,43.84 59.01,65.27" /></g></g></svg>