<?xml version="1.0" encoding="utf-8"?>
<!-- Generator: Adobe Illustrator 17.0.0, SVG Export Plug-In . SVG Version: 6.00 Build 0)  -->
<!DOCTYPE svg PUBLIC "-//W3C//DTD SVG 1.1//EN" "http://www.w3.org/Graphics/SVG/1.1/DTD/svg11.dtd">
<svg version="1.1" id="Capa_1" xmlns="http://www.w3.org/2000/svg" xmlns:xlink="http://www.w3.org/1999/xlink" x="0px" y="0px"
	 width="300px" height="31.902px" viewBox="0 0 300 31.902" enable-background="new 0 0 300 31.902" xml:space="preserve">
<g>
	<polygon fill-rule="evenodd" clip-rule="evenodd" fill="#C3C4C4" points="20.639,8.923 16.117,5.997 12.553,3.816 8.936,3.072 
		5.16,5.412 1.436,9.082 2.819,11.955 5,13.87 12.766,13.87 21.064,13.338 	"/>
	<path fill-rule="evenodd" clip-rule="evenodd" fill="#FFFFFF" d="M2.819,8.87c0.426-0.691,1.862-1.862,2.606-2.394l1.383-1.064
		C7.713,4.88,7.5,5.04,8.67,5.253c1.915,0.426,6.809,1.117,7.766,2.234c0.851,0.904,1.117,2.872-0.479,3.138
		c-1.383,0.213-7.181-0.691-8.83-0.957L2.819,8.87z M0,12.54c0,2.074,1.17,4.255,2.394,5.532C2.5,18.125,2.5,18.178,2.606,18.285
		c2.66,2.926,7.926,4.149,12.075,4.894c2.234,0.426,3.511,0.479,5.532,0.798c3.617,0.479,2.181-0.426,4.309,2.075
		c1.702,2.021,4.734,5,7.713,5c0.692,0,1.277-0.372,1.596-0.798c0.798-1.011,0.532-2.66,0.16-3.723
		c-0.106-0.426-0.532-1.489-0.585-1.809l8.511,0.106c3.351,0,4.521-4.468,5.106-6.968c0.213-0.851,0.319-1.649,0.479-2.5
		c0.213-0.904,0.426-1.649,0.585-2.5c0.691-4.043-1.809-4.681-3.723-3.032c-1.755,1.596-2.234,2.872-3.617,4.521
		c-0.532,0.691-1.117,1.277-2.394,1.277c-0.638,0-1.809-0.319-2.234-0.479c0.426-0.851,0.851-1.596,1.277-2.447l2.819-4.894
		c1.223-1.809,1.968-4.149-0.479-5.319c-0.745-0.319-2.394-0.638-3.458-0.638c-2.394,0-3.511,1.489-5.106,3.085
		c-0.638,0.638-3.777,3.723-4.096,4.149l-4.309-3.404c-2.34-1.755-6.17-3.883-9.096-3.883c-1.915,0-3.511,0.585-4.84,1.17
		C7.766,3.391,5.904,4.614,5,5.306C3.138,6.742,0,9.402,0,12.54L0,12.54z"/>
	<path fill-rule="evenodd" clip-rule="evenodd" fill="#4D4D4D" d="M12.447,18.231c-1.543,0-4.309-0.585-5.106-1.436
		c0.532,0.106,1.223,0.319,1.809,0.479c2.447,0.638,3.511,0.479,6.011,0.479C14.575,18.178,13.351,18.231,12.447,18.231
		L12.447,18.231z M1.277,13.444c0.691,3.298,3.085,5.426,6.33,6.702c2.872,1.117,11.809,3.032,14.468,2.819
		c-0.266-0.213-3.511-4.734-3.936-5.372c-0.532-0.745-1.968-2.447,0-2.713c0.957-0.16,3.138,0.319,4.096,0.532
		c2.287,0.479,5.479,0.904,7.075,2.447c1.809,1.755,3.351,5.319,3.617,5.692c1.702,0.053,3.457,0.053,5.16,0.053
		c1.277,0.053,3.777,0.266,4.734-0.16c1.968-0.957,2.766-4.149,3.298-6.915c0.266-1.383,0.691-2.872,0.904-4.202
		c0.479-3.298-1.543-2.234-3.032-0.372c-1.117,1.436-2.606,3.883-3.777,4.415c-2.606,1.17-5.958-0.638-7.713-1.809
		c-3.192-2.128-5.851-4.255-8.67-6.649l-2.926-2.128c-3.511-2.34-7.713-4.096-11.862-1.596c2.181,0.585,4.255,0.585,6.915,1.702
		c2.766,1.117,2.819,4.362,1.223,5.426c-2.021,1.33-12.394-1.011-15.213-1.383C1.543,11.157,0.904,11.689,1.277,13.444L1.277,13.444
		z"/>
	<path fill-rule="evenodd" clip-rule="evenodd" fill="#4D4D4D" d="M18.458,15.944c0.798,1.596,4.787,6.649,6.117,8.351
		c0.532,0.691,1.064,1.33,1.596,1.915c0.585,0.691,1.117,1.117,1.809,1.755c0.532,0.479,3.989,2.819,4.947,1.596
		c1.33-1.649-2.394-8.564-3.67-10.053c-1.436-1.649-1.968-1.862-4.681-2.447C22.819,16.636,20.266,16.051,18.458,15.944
		L18.458,15.944z"/>
	<path fill-rule="evenodd" clip-rule="evenodd" fill="#4D4D4D" d="M35.001,14.668c0.106-0.106,0.053-0.053,0.16-0.213l0.319-0.532
		c0.957-1.702,1.649-3.192,2.766-5.053c1.17-1.915,3.458-4.734,0.585-5.479c-3.936-1.064-4.575,0.16-6.383,1.915
		c-0.798,0.798-1.489,1.489-2.234,2.234c-0.745,0.691-1.489,1.543-2.234,2.181c0.16,0.266,0,0.053,0.213,0.266
		C29.149,11.051,34.149,14.348,35.001,14.668L35.001,14.668z"/>
	<path fill-rule="evenodd" clip-rule="evenodd" fill="#151515" d="M12.447,18.231c0.904,0,2.128-0.053,2.713-0.479
		c-2.5,0-3.564,0.16-6.011-0.479c-0.585-0.16-1.277-0.372-1.809-0.479C8.138,17.646,10.904,18.231,12.447,18.231L12.447,18.231z"/>
	<path fill="#FFFFFF" d="M56.863,26.37c-2.128-8.458-3.458-15.958-3.989-22.447c-0.053-0.745,0.053-1.383,0.372-1.968
		c0.319-0.585,0.745-0.957,1.33-1.117l1.915-0.585c0.532-0.16,1.011-0.053,1.489,0.266c0.479,0.319,0.851,0.798,1.011,1.436
		c0.106,0.372,0.213,0.691,0.319,1.064c0,0,0.213,0.851,0.532,2.606s0.692,3.883,1.17,6.33c0.426,2.394,0.745,4.309,1.011,5.692
		c0.106,0.745,0.266,1.489,0.372,2.234c0.053,0.16,0.106,0.266,0.213,0.266c0.16,0,0.213-0.106,0.266-0.266c0-0.053,0-0.106,0-0.213
		v-0.106c0.053-0.053,0.106-0.426,0.213-1.117c0.106-0.691,0.213-1.543,0.372-2.5c0.106-0.957,0.266-2.075,0.479-3.298
		c0.213-1.223,0.372-2.394,0.585-3.511c0.213-1.17,0.426-2.234,0.638-3.192c0.213-1.011,0.372-1.809,0.585-2.34
		c0-0.053,0.053-0.106,0.053-0.16c0.053-0.16,0.053-0.319,0.106-0.426c0.053-0.106,0.053-0.16,0.106-0.213
		c0.053-0.319,0.16-0.585,0.213-0.851c0.213-0.638,0.532-1.117,1.011-1.436c0.532-0.319,1.011-0.426,1.543-0.266l1.915,0.585
		c0.532,0.16,0.957,0.532,1.33,1.117c0.319,0.585,0.426,1.223,0.372,1.968c-0.691,8.138-2.021,15.639-3.989,22.447
		c-0.213,0.692-0.372,1.277-0.532,1.755c-0.106,0.479-0.319,0.957-0.479,1.33c-0.213,0.426-0.372,0.745-0.532,0.957
		c-0.106,0.213-0.319,0.426-0.585,0.638c-0.266,0.16-0.479,0.266-0.638,0.372c-0.16,0.106-0.426,0.16-0.798,0.213
		c-0.426,0.053-0.745,0.053-1.011,0.053c-0.213,0-0.638,0-1.223,0c-0.692,0-1.223,0-1.596,0c-0.372,0-0.745-0.106-1.17-0.213
		c-0.426-0.106-0.798-0.266-0.957-0.479c-0.213-0.213-0.479-0.479-0.745-0.904c-0.266-0.426-0.532-0.904-0.692-1.489
		C57.235,28.019,57.075,27.274,56.863,26.37L56.863,26.37z M76.384,31.796c-0.638,0-1.17-0.213-1.596-0.638
		c-0.479-0.479-0.691-1.011-0.798-1.702c-1.064-8.883-1.064-17.819,0-26.809c0.053-0.426,0.213-0.798,0.426-1.17
		s0.479-0.638,0.851-0.851c0.319-0.213,0.691-0.319,1.117-0.319h2.5c0.638,0,1.117,0.213,1.596,0.691
		c0.426,0.479,0.691,1.064,0.798,1.755c1.011,10.638,1.064,19.575,0.106,26.756c-0.106,0.638-0.319,1.223-0.798,1.649
		c-0.426,0.479-0.957,0.691-1.596,0.691L76.384,31.796z M94.682,26.317c-1.489,0.213-2.872,0.213-4.149,0
		c-0.319-0.053-0.532,0.106-0.638,0.479c-0.372,1.383-0.692,2.447-0.904,3.138c-0.213,0.638-0.585,1.117-1.064,1.436
		c-0.479,0.372-0.957,0.426-1.489,0.266l-1.915-0.585c-0.585-0.16-1.011-0.532-1.33-1.117c-0.319-0.585-0.426-1.223-0.372-1.968
		c0.691-8.138,2.021-15.639,3.989-22.5c0.213-0.691,0.372-1.277,0.532-1.755c0.16-0.479,0.319-0.904,0.479-1.277
		c0.213-0.372,0.372-0.692,0.532-0.957c0.106-0.213,0.319-0.426,0.585-0.638c0.266-0.16,0.479-0.319,0.638-0.372
		c0.16-0.053,0.426-0.106,0.798-0.16c0.426-0.053,0.745-0.106,1.011-0.106c0.213,0,0.638,0,1.17,0c0.745,0,1.277,0.053,1.649,0.053
		s0.745,0.053,1.17,0.16c0.479,0.106,0.798,0.266,1.011,0.479s0.426,0.532,0.691,0.904c0.266,0.426,0.479,0.904,0.691,1.489
		c0.16,0.585,0.372,1.33,0.585,2.181c2.128,8.511,3.457,16.011,3.989,22.5c0.053,0.745-0.053,1.383-0.372,1.968
		c-0.372,0.585-0.798,0.957-1.277,1.117l-1.968,0.585c-0.532,0.16-1.011,0.106-1.489-0.266c-0.532-0.319-0.851-0.798-1.011-1.436
		c-0.053-0.16-0.213-0.692-0.479-1.596c-0.266-0.904-0.372-1.436-0.426-1.543C95.214,26.423,95.001,26.264,94.682,26.317
		L94.682,26.317z M91.384,20.093c-0.053,0.213,0,0.426,0.106,0.585c0.106,0.16,0.266,0.266,0.426,0.266
		c0.479-0.053,0.904-0.053,1.33,0c0.16,0,0.319-0.106,0.426-0.266c0.106-0.213,0.16-0.372,0.106-0.585
		c-0.372-1.755-0.691-3.564-0.957-5.426c-0.053-0.16-0.106-0.213-0.213-0.213c-0.16,0-0.213,0.053-0.213,0.213
		C92.076,16.529,91.757,18.338,91.384,20.093L91.384,20.093z M102.448,21.37c0-0.426,0-0.798,0-1.117c0-0.745,0-1.543,0-2.447
		c0-0.319,0.106-0.638,0.319-0.904c0.213-0.266,0.479-0.372,0.745-0.426c0.798-0.106,1.649-0.106,2.553,0
		c0.319,0.053,0.532,0.16,0.745,0.479c0.213,0.266,0.319,0.532,0.319,0.851v3.67l0,0c0,1.223,0.426,1.968,1.383,2.234
		c0.319,0,0.585-0.053,0.798-0.16c0.213-0.106,0.372-0.319,0.479-0.585c0.106-0.213,0.16-0.426,0.16-0.585
		c0.053-0.106,0.106-0.319,0.106-0.638c0-0.106,0-0.213,0-0.372c0.213-3.404,0.319-7.021,0.426-10.798
		c0-0.16-0.053-0.319-0.16-0.479c-0.106-0.106-0.266-0.213-0.426-0.213c-0.691-0.053-1.383-0.106-2.128-0.213
		c-0.266,0-0.479-0.16-0.691-0.372c-0.16-0.213-0.319-0.479-0.372-0.798c-0.266-2.553-0.266-4.947,0-7.128
		c0.053-0.319,0.16-0.585,0.372-0.798c0.16-0.213,0.426-0.372,0.691-0.372c1.862-0.213,4.468-0.266,7.819-0.106
		c0.904,0.053,1.755,0.479,2.394,1.277c0.691,0.798,1.011,1.755,1.011,2.819v3.83v0.904c0,0.213,0,0.426,0,0.691
		c0,6.809-0.16,11.755-0.479,14.787c-0.213,1.915-0.851,3.564-1.915,4.894s-2.34,2.075-3.83,2.287
		c-1.489,0.16-2.979,0.16-4.415,0.053c-1.117-0.106-2.074-0.532-2.979-1.277c-0.851-0.745-1.543-1.702-2.075-2.872
		c-0.479-1.223-0.745-2.553-0.798-3.989C102.502,23.125,102.448,22.434,102.448,21.37L102.448,21.37z M131.704,26.317
		c-1.489,0.213-2.872,0.213-4.149,0c-0.319-0.053-0.532,0.106-0.638,0.479c-0.426,1.383-0.745,2.447-0.957,3.138
		c-0.213,0.638-0.532,1.117-1.011,1.436c-0.479,0.372-1.011,0.426-1.543,0.266l-1.915-0.585c-0.532-0.16-1.011-0.532-1.277-1.117
		c-0.319-0.585-0.479-1.223-0.426-1.968c0.692-8.138,2.021-15.639,3.989-22.5c0.213-0.691,0.372-1.277,0.532-1.755
		c0.16-0.479,0.319-0.904,0.532-1.277c0.213-0.372,0.372-0.692,0.479-0.957c0.16-0.213,0.319-0.426,0.585-0.638
		c0.266-0.16,0.479-0.319,0.638-0.372c0.16-0.053,0.426-0.106,0.851-0.16c0.372-0.053,0.692-0.106,0.957-0.106s0.638,0,1.223,0
		c0.745,0,1.277,0.053,1.596,0.053c0.372,0,0.798,0.053,1.223,0.16c0.426,0.106,0.745,0.266,0.957,0.479
		c0.213,0.213,0.426,0.532,0.691,0.904c0.266,0.426,0.479,0.904,0.691,1.489c0.16,0.585,0.372,1.33,0.638,2.181
		c2.075,8.511,3.404,16.011,3.989,22.5c0.053,0.745-0.106,1.383-0.426,1.968c-0.319,0.585-0.745,0.957-1.277,1.117l-1.915,0.585
		c-0.532,0.16-1.064,0.106-1.543-0.266c-0.479-0.319-0.851-0.798-1.011-1.436c-0.053-0.16-0.213-0.692-0.479-1.596
		c-0.213-0.904-0.372-1.436-0.372-1.543C132.236,26.423,132.023,26.264,131.704,26.317L131.704,26.317z M128.353,20.093
		c0,0.213,0.053,0.426,0.16,0.585c0.106,0.16,0.213,0.266,0.426,0.266c0.426-0.053,0.851-0.053,1.277,0
		c0.213,0,0.319-0.106,0.426-0.266c0.106-0.213,0.16-0.372,0.106-0.585c-0.372-1.755-0.638-3.564-0.957-5.426
		c0-0.16-0.106-0.213-0.213-0.213s-0.213,0.053-0.213,0.213C129.044,16.529,128.725,18.338,128.353,20.093L128.353,20.093z
		 M143.726,31.902c-0.691,0-1.277-0.266-1.755-0.745c-0.532-0.532-0.851-1.117-0.904-1.862c-1.17-8.351-1.277-16.756-0.372-25.266
		c0.106-0.957,0.479-1.755,1.064-2.447c0.638-0.638,1.33-1.064,2.181-1.117c2.234-0.266,4.202-0.319,5.958-0.16
		c1.809,0.16,3.404,0.957,4.681,2.447c1.277,1.489,1.915,3.298,2.021,5.372c0.053,1.117,0.053,2.287,0,3.511
		c-0.106,2.394-0.851,4.309-2.287,5.798c2.075,4.628,3.404,8.085,4.149,10.372c0.16,0.585,0.16,1.223-0.053,1.862
		c-0.213,0.585-0.585,1.064-1.117,1.383l-0.957,0.585c-0.532,0.266-1.064,0.319-1.596,0.16c-0.585-0.16-1.011-0.479-1.33-1.011
		c-1.489-2.34-3.032-5.106-4.628-8.245c-0.106,2.5-0.266,4.681-0.532,6.702c-0.053,0.745-0.372,1.383-0.904,1.862
		c-0.479,0.532-1.117,0.798-1.755,0.798H143.726z M148.938,8.657c0,0.319,0.053,0.638,0.053,1.011c0,0.319,0,0.638,0.053,0.957
		c0,0.319,0,0.585,0,0.904c0,0.319,0,0.585,0,0.798c-0.053,0.266-0.053,0.479-0.053,0.692c0,0.266,0,0.426,0,0.585
		c0,0.16-0.053,0.319-0.053,0.426c0,0.16,0,0.213,0,0.266c0,0.106,0,0.106,0,0.106c0.053,0.053,0.106,0.053,0.16,0.053
		c0.213,0.053,0.426,0,0.638,0c0.213-0.053,0.426-0.16,0.585-0.319c0.16-0.106,0.266-0.266,0.372-0.479
		c0.16-0.213,0.213-0.426,0.266-0.638c0.16-0.851,0.106-1.862-0.106-3.032c-0.106-0.479-0.319-0.904-0.691-1.17
		c-0.372-0.266-0.798-0.319-1.223-0.213V8.657z"/>
	<path fill="#C3C4C4" d="M165.109,31.583c-1.543-0.213-2.872-0.957-3.989-2.287s-1.809-2.979-2.021-4.894
		c-0.638-6.011-0.638-11.649-0.106-16.862c0.213-1.968,0.851-3.617,2.021-5c1.117-1.33,2.5-2.075,4.043-2.234
		c1.596-0.16,3.298-0.106,5.106,0.16c1.596,0.213,2.819,1.064,3.67,2.553c0.851,1.489,1.277,3.351,1.33,5.532
		c0,0.585,0,1.117-0.053,1.649c-0.053,1.543-0.532,2.447-1.543,2.606c-0.266,0-0.532,0.053-0.691,0.053
		c-0.16,0.053-0.319,0.053-0.479,0.053c-0.106,0-0.213,0-0.319,0c-0.053-0.053-0.16-0.053-0.372-0.106
		c-0.16,0-0.319-0.053-0.479-0.053c-0.372-0.053-0.638-0.213-0.798-0.479c-0.213-0.266-0.319-0.585-0.319-0.904
		c-0.053-0.319-0.053-0.745-0.053-1.33c0-0.585,0-1.223,0.053-1.809c0-0.106,0-0.213-0.053-0.319c0-0.106-0.106-0.266-0.319-0.479
		c-0.16-0.16-0.426-0.266-0.798-0.266c0,0-0.053,0-0.106,0c0,0-0.106,0-0.213,0.053c-0.106,0-0.16,0.053-0.266,0.16
		c-0.053,0.053-0.16,0.16-0.266,0.319c-0.053,0.16-0.16,0.319-0.213,0.585c-0.585,3.564-0.585,8.298,0.106,14.256
		c0,0.106,0.053,0.266,0.053,0.372c0.106,0.532,0.479,0.798,1.064,0.798c0.745,0,1.117-0.479,1.064-1.489v-0.053v-0.053l0,0
		c-0.106-0.957-0.106-1.915-0.053-2.872c0-0.479,0.053-0.798,0.053-0.957c0.053-0.213,0.106-0.426,0.16-0.691
		c0.106-0.266,0.213-0.479,0.426-0.638c0.213-0.213,0.479-0.319,0.798-0.319l1.064,0.053c0.851,0,1.277,0.053,1.33,0.053
		c0.106,0.053,0.213,0.16,0.319,0.213c0.053,0.106,0.16,0.213,0.213,0.266c0.053,0.053,0.053,0.213,0.106,0.372
		c0.053,0.16,0.053,0.266,0.106,0.372c0,0.053,0,0.213,0.053,0.479c0,0.266,0.053,0.426,0.053,0.479
		c0.106,1.277,0.16,2.819,0.16,4.575c0,2.234-0.479,4.149-1.383,5.638c-0.904,1.543-2.181,2.34-3.83,2.5
		C168.247,31.742,166.705,31.742,165.109,31.583L165.109,31.583z M181.598,31.583c-1.277-0.372-2.394-1.17-3.298-2.447
		c-0.851-1.277-1.436-2.819-1.596-4.628c-0.585-6.011-0.638-11.649-0.106-16.968c0.16-1.915,0.798-3.564,1.809-4.947
		c1.064-1.33,2.287-2.075,3.723-2.234c0.745-0.106,1.543-0.106,2.34-0.106c0.851,0,1.596,0,2.34,0.106
		c0.957,0.106,1.809,0.479,2.66,1.117c0.798,0.638,1.436,1.489,1.968,2.553c0.479,1.064,0.798,2.234,0.957,3.511
		c0.479,5.319,0.479,10.958-0.106,16.968c-0.16,1.17-0.426,2.234-0.904,3.245c-0.426,1.011-1.011,1.862-1.702,2.5
		c-0.691,0.691-1.489,1.117-2.287,1.33c-0.319,0.106-0.638,0.16-0.957,0.213c-0.638,0.053-1.277,0.053-1.968,0.053
		c-0.691,0-1.33,0-1.915-0.053C182.237,31.742,181.918,31.689,181.598,31.583L181.598,31.583z M185.801,7.699
		c-0.372,1.755-0.532,4.468-0.532,8.085c0,3.511,0.16,6.011,0.532,7.606c0.053,0.372,0.266,0.585,0.638,0.585
		s0.585-0.16,0.691-0.585c0.372-1.436,0.532-3.989,0.532-7.606c0-3.83-0.213-6.543-0.585-8.085
		c-0.053-0.426-0.266-0.638-0.638-0.585C186.067,7.114,185.854,7.327,185.801,7.699L185.801,7.699z M197.077,31.796
		c-0.585-0.053-1.064-0.319-1.489-0.745c-0.372-0.426-0.638-0.957-0.691-1.596c-1.17-9.521-1.17-18.458-0.106-26.809
		c0.106-0.638,0.372-1.17,0.798-1.596c0.479-0.426,0.957-0.638,1.543-0.691c1.011-0.053,1.862,0,2.553,0.053c0,0,0.479,0,1.436,0
		c0.957,0,1.436,0,1.489,0c0.957,0.053,1.649,0.638,2.021,1.596l2.181,9.468c0.053,0.106,0.16,0.16,0.266,0.16
		c0.106,0,0.16-0.053,0.213-0.16l2.394-9.521c0.372-1.011,1.064-1.543,1.968-1.649c0.053,0,0.266,0,0.692,0c0.479,0,0.904,0,1.33,0
		c0.479,0,0.691,0,0.691,0c0.691,0,1.543,0,2.553,0.053c0.532,0.053,1.064,0.266,1.489,0.691c0.426,0.426,0.692,1.011,0.798,1.649
		c0.957,9.415,0.957,18.298,0,26.703c-0.106,0.638-0.372,1.223-0.798,1.649c-0.426,0.426-0.957,0.692-1.543,0.692
		c-0.798,0-1.702,0-2.766-0.106c-0.585-0.053-1.064-0.266-1.436-0.691c-0.426-0.426-0.691-0.957-0.798-1.596
		c-0.16-1.17-0.319-2.394-0.426-3.723c-0.106-1.436-0.213-3.404-0.213-6.064c0-0.16-0.053-0.266-0.213-0.266
		c-0.16-0.053-0.213,0-0.266,0.16l-1.33,9.043c-0.106,0.638-0.479,1.011-1.064,1.064c-0.266,0.053-0.692,0.053-1.223,0.053
		c-0.532,0-0.957,0-1.223-0.053c-0.479-0.106-0.851-0.585-1.064-1.489l-1.383-8.458c-0.053-0.106-0.16-0.16-0.319-0.16
		c-0.106,0.053-0.213,0.106-0.213,0.319l-0.266,4.202c-0.106,1.862-0.319,3.723-0.532,5.479c-0.053,0.638-0.319,1.17-0.692,1.596
		c-0.426,0.372-0.904,0.638-1.436,0.692C198.992,31.849,198.035,31.849,197.077,31.796L197.077,31.796z M224.471,31.796
		c-0.585,0-1.117-0.213-1.596-0.638c-0.426-0.479-0.691-1.011-0.745-1.702c-1.117-8.883-1.117-17.819,0-26.809
		c0.053-0.426,0.16-0.798,0.372-1.17c0.266-0.372,0.532-0.638,0.851-0.851c0.372-0.213,0.745-0.319,1.117-0.319h2.553
		c0.585,0,1.117,0.213,1.543,0.691c0.479,0.479,0.745,1.064,0.798,1.755c1.064,10.638,1.064,19.575,0.16,26.756
		c-0.106,0.638-0.372,1.223-0.798,1.649c-0.479,0.479-1.011,0.691-1.596,0.691L224.471,31.796z M235.589,31.583
		c-0.851-0.053-1.649-0.372-2.234-1.064c-0.638-0.691-1.011-1.489-1.117-2.447c-0.957-7.979-0.957-16.064,0-24.202
		c0.106-0.957,0.479-1.755,1.117-2.447c0.585-0.691,1.383-1.064,2.234-1.117c3.192-0.213,6.277-0.106,9.309,0.266
		c0.798,0.106,1.383,0.479,1.649,1.117c0.319,0.585,0.532,1.489,0.585,2.606c0,0.372,0.053,0.692,0.053,1.011
		c0,1.277-0.106,2.287-0.372,2.979c-0.213,0.638-0.798,1.011-1.649,1.064c-1.596,0.16-3.085,0.213-4.468,0.213
		c-0.16,0-0.319,0.053-0.372,0.16c-0.106,0.106-0.16,0.266-0.16,0.426c0,0.053,0,0.479,0,1.223c0,0.691,0,1.117,0.053,1.17
		c0,0.213,0.16,0.372,0.479,0.372c0.213,0.053,0.585,0.053,1.064,0c0.479,0,0.851,0,1.117,0c0.798,0.106,1.33,0.319,1.543,0.585
		c0.213,0.319,0.319,0.851,0.319,1.702c0,0.053-0.053,0.213-0.053,0.532c0,0.319,0,0.532,0,0.638c0,0.16,0,0.319,0,0.532
		c0,0.16-0.16,0.426-0.426,0.745c-0.319,0.319-0.745,0.532-1.277,0.585c-0.585,0.053-1.436,0.053-2.553,0.106
		c-0.053,0-0.106,0.213-0.106,0.585c-0.053,0.426-0.053,0.904,0,1.383c0,0.532,0,0.798,0,0.798c0,0.266,0,0.479,0,0.691
		c0,0.16,0.053,0.266,0.16,0.426c0.053,0.106,0.213,0.16,0.319,0.16c1.011,0,2.287,0.053,3.883,0.16
		c1.702,0.106,2.5,1.436,2.5,4.096c0,0.319-0.053,0.638-0.053,0.957c-0.053,1.17-0.213,2.021-0.532,2.66
		c-0.266,0.638-0.851,1.011-1.649,1.064C241.919,31.689,238.78,31.796,235.589,31.583L235.589,31.583z M251.334,31.796
		c-0.638,0-1.17-0.213-1.596-0.691c-0.426-0.426-0.691-1.011-0.798-1.702c-0.957-8.83-0.957-17.766,0-26.703
		c0.053-0.319,0.106-0.638,0.266-0.957c0.16-0.266,0.319-0.532,0.532-0.745c0.213-0.213,0.426-0.372,0.745-0.532
		c0.266-0.106,0.532-0.16,0.851-0.16h1.649c0.479,0,0.904,0.16,1.33,0.479c0.372,0.319,0.691,0.692,0.851,1.17
		c0.638,2.075,1.223,4.681,1.809,7.766c0,0.16,0.106,0.213,0.213,0.213c0.16,0,0.213-0.106,0.213-0.266
		c0.213-4.362,0.319-6.649,0.319-6.968c0.053-0.638,0.319-1.223,0.798-1.702c0.426-0.479,0.957-0.691,1.596-0.691h1.596
		c0.266,0,0.532,0.053,0.745,0.106c0.213,0.106,0.426,0.213,0.638,0.372c0.16,0.106,0.372,0.319,0.479,0.532
		c0.16,0.213,0.266,0.426,0.372,0.691c0.106,0.266,0.16,0.532,0.16,0.798c0.904,10.585,0.957,19.468,0.16,26.649
		c-0.106,0.638-0.372,1.223-0.851,1.702c-0.426,0.426-0.957,0.638-1.596,0.638h-1.702c-0.638,0-1.17-0.213-1.596-0.691
		c-0.479-0.426-0.745-1.011-0.798-1.702c-0.372-1.117-0.851-3.404-1.436-6.862c0-0.106-0.106-0.213-0.266-0.16
		c-0.106,0-0.213,0.053-0.213,0.213c-0.16,3.83-0.266,6.117-0.319,6.862c-0.106,0.638-0.372,1.223-0.798,1.702
		c-0.479,0.426-1.011,0.638-1.596,0.638H251.334z M270.589,31.689c-0.904,0-1.702-0.319-2.34-0.957
		c-0.692-0.691-1.117-1.543-1.223-2.553c-1.117-8.936-1.17-17.128-0.106-24.522c0.16-1.011,0.532-1.809,1.223-2.447
		c0.638-0.691,1.436-1.011,2.287-1.011s1.755,0,2.713,0c0.532,0,1.011,0.053,1.33,0.053c0.372,0,0.851,0.053,1.383,0.16
		c0.585,0.106,1.064,0.266,1.436,0.479c0.426,0.16,0.851,0.479,1.383,0.798c0.479,0.372,0.904,0.798,1.277,1.33
		c0.319,0.532,0.691,1.223,1.011,2.021c0.372,0.798,0.638,1.702,0.851,2.713c0.213,1.011,0.372,2.234,0.532,3.617
		c0.106,1.383,0.213,2.926,0.213,4.628c0,1.649-0.106,3.192-0.266,4.575c-0.106,1.436-0.319,2.606-0.585,3.617
		c-0.266,0.957-0.585,1.915-0.904,2.713c-0.319,0.851-0.691,1.489-1.011,1.968c-0.372,0.532-0.745,0.957-1.17,1.33
		c-0.372,0.426-0.691,0.691-1.064,0.851c-0.319,0.213-0.585,0.319-0.851,0.426s-0.479,0.213-0.638,0.213h-0.213H270.589z
		 M274.898,7.38c0.213,6.436,0.213,12.234-0.053,17.341c0,0,0.213,0,0.585-0.053c1.489-0.851,2.234-3.723,2.234-8.724
		s-0.745-7.819-2.181-8.458C275.111,7.433,274.898,7.38,274.898,7.38L274.898,7.38z M288.834,31.583
		c-1.277-0.372-2.34-1.17-3.245-2.447s-1.436-2.819-1.649-4.628c-0.585-6.011-0.585-11.649-0.106-16.968
		c0.213-1.915,0.798-3.564,1.862-4.947c1.011-1.33,2.287-2.075,3.723-2.234c0.745-0.106,1.489-0.106,2.34-0.106
		c0.798,0,1.596,0,2.34,0.106c0.904,0.106,1.809,0.479,2.606,1.117c0.798,0.638,1.436,1.489,1.968,2.553
		c0.532,1.064,0.851,2.234,0.957,3.511c0.532,5.319,0.479,10.958-0.106,16.968c-0.106,1.17-0.426,2.234-0.851,3.245
		c-0.479,1.011-1.064,1.862-1.755,2.5c-0.691,0.691-1.436,1.117-2.287,1.33c-0.319,0.106-0.638,0.16-0.957,0.213
		c-0.638,0.053-1.277,0.053-1.915,0.053c-0.691,0-1.33,0-1.968-0.053C289.472,31.742,289.153,31.689,288.834,31.583L288.834,31.583z
		 M293.036,7.699c-0.319,1.755-0.479,4.468-0.479,8.085c0,3.511,0.16,6.011,0.479,7.606c0.106,0.372,0.319,0.585,0.638,0.585
		c0.372,0,0.585-0.16,0.691-0.585c0.372-1.436,0.532-3.989,0.532-7.606c0-3.83-0.16-6.543-0.532-8.085
		c-0.106-0.426-0.319-0.638-0.691-0.585C293.355,7.114,293.143,7.327,293.036,7.699L293.036,7.699z"/>
</g>
</svg>
